<svg xmlns="http://www.w3.org/2000/svg" width="19.955" height="25.276" viewBox="0 0 19.955 25.276">
  <path id="description_24dp_5F6368_FILL0_wght300_GRAD0_opsz24_3_" data-name="description_24dp_5F6368_FILL0_wght300_GRAD0_opsz24 (3)" d="M184.989-839.713h9.977v-2h-9.977Zm0-5.321h9.977v-2h-9.977Zm-2.584,10.31a2.322,2.322,0,0,1-1.706-.7,2.321,2.321,0,0,1-.7-1.707V-857.6a2.322,2.322,0,0,1,.7-1.707,2.322,2.322,0,0,1,1.706-.7H192.97l6.984,6.984v15.887a2.322,2.322,0,0,1-.7,1.707,2.322,2.322,0,0,1-1.706.7Zm9.568-17.294V-858H182.4a.39.39,0,0,0-.281.128.39.39,0,0,0-.128.281v20.466a.391.391,0,0,0,.128.281.39.39,0,0,0,.281.128H197.55a.39.39,0,0,0,.281-.128.391.391,0,0,0,.128-.281v-14.889ZM182-858v0Z" transform="translate(-180 860)" fill="#3072af"/>
</svg>
