<svg xmlns="http://www.w3.org/2000/svg" width="22.07" height="22.07" viewBox="0 0 22.07 22.07">
  <path id="account_circle_24dp_5F6368_FILL0_wght300_GRAD0_opsz24_2_" data-name="account_circle_24dp_5F6368_FILL0_wght300_GRAD0_opsz24 (2)" d="M104.092-842.818a12.678,12.678,0,0,1,3.227-1.736,10.761,10.761,0,0,1,3.716-.636,10.761,10.761,0,0,1,3.716.636,12.679,12.679,0,0,1,3.227,1.736,9.158,9.158,0,0,0,1.716-2.756,8.958,8.958,0,0,0,.633-3.391,8.958,8.958,0,0,0-2.715-6.577,8.958,8.958,0,0,0-6.577-2.715,8.958,8.958,0,0,0-6.577,2.715,8.958,8.958,0,0,0-2.715,6.577,8.958,8.958,0,0,0,.633,3.391A9.158,9.158,0,0,0,104.092-842.818Zm6.943-5.276a3.648,3.648,0,0,1-2.683-1.092,3.647,3.647,0,0,1-1.092-2.683,3.648,3.648,0,0,1,1.092-2.683,3.647,3.647,0,0,1,2.683-1.093,3.648,3.648,0,0,1,2.683,1.092,3.646,3.646,0,0,1,1.092,2.683,3.648,3.648,0,0,1-1.092,2.683A3.647,3.647,0,0,1,111.035-848.094Zm0,10.164a10.813,10.813,0,0,1-4.312-.865,11.078,11.078,0,0,1-3.5-2.354,11.08,11.08,0,0,1-2.355-3.5,10.816,10.816,0,0,1-.865-4.312,10.815,10.815,0,0,1,.865-4.312,11.08,11.08,0,0,1,2.355-3.5,11.079,11.079,0,0,1,3.5-2.354,10.816,10.816,0,0,1,4.312-.865,10.816,10.816,0,0,1,4.312.865,11.079,11.079,0,0,1,3.5,2.354,11.081,11.081,0,0,1,2.355,3.5,10.815,10.815,0,0,1,.864,4.312,10.816,10.816,0,0,1-.864,4.312,11.081,11.081,0,0,1-2.355,3.5,11.078,11.078,0,0,1-3.5,2.354A10.813,10.813,0,0,1,111.035-837.93Zm0-1.742a9.2,9.2,0,0,0,3.032-.506,8.614,8.614,0,0,0,2.592-1.415,8.825,8.825,0,0,0-2.559-1.365,9.386,9.386,0,0,0-3.066-.489,9.538,9.538,0,0,0-3.071.484,8.42,8.42,0,0,0-2.553,1.371A8.614,8.614,0,0,0,108-840.178,9.2,9.2,0,0,0,111.035-839.673Zm0-10.164a1.967,1.967,0,0,0,1.45-.583,1.967,1.967,0,0,0,.583-1.45,1.968,1.968,0,0,0-.583-1.45,1.967,1.967,0,0,0-1.45-.583,1.967,1.967,0,0,0-1.45.583,1.968,1.968,0,0,0-.583,1.45,1.967,1.967,0,0,0,.583,1.45A1.967,1.967,0,0,0,111.035-849.836ZM111.035-851.869ZM111.035-841.56Z" transform="translate(-100 860)"/>
</svg>
